<?xml version="1.0" encoding="utf-8" ?>
<svg xmlns="http://www.w3.org/2000/svg" xmlns:xlink="http://www.w3.org/1999/xlink" width="1024" height="1024">
	<g>
		<path fill="#FFF05E" d="M636.434 238.024L740.762 238.065C741.63 307.371 740.635 376.752 740.654 446.068C740.668 499.997 742.036 554.068 740.609 607.978L636.506 608.001C636.199 588.534 638.024 571.317 645.867 553.301C648.349 548.11 651.419 543.087 654.783 538.424C672.315 514.121 694.928 503.937 723.749 499.385C717.145 498.34 710.436 498.009 703.82 497.028C688.964 494.827 673.784 488.97 662.728 478.578Q661.415 477.328 660.164 476.016Q658.913 474.704 657.726 473.334Q656.54 471.963 655.421 470.537Q654.302 469.11 653.253 467.632Q652.204 466.153 651.228 464.626Q650.252 463.098 649.35 461.525Q648.449 459.953 647.624 458.338Q646.799 456.724 646.054 455.071Q645.308 453.419 644.643 451.732Q643.978 450.046 643.395 448.329Q642.812 446.613 642.312 444.87Q641.813 443.128 641.398 441.363Q640.983 439.598 640.654 437.815Q640.324 436.033 640.081 434.236Q639.839 432.44 639.683 430.634Q639.527 428.828 639.458 427.016Q639.408 425.196 639.447 423.376Q639.486 421.555 639.614 419.739Q639.743 417.923 639.96 416.116Q640.178 414.308 640.484 412.513Q640.79 410.718 641.183 408.941Q641.577 407.163 642.058 405.407Q642.539 403.651 643.105 401.921Q643.671 400.19 644.322 398.49Q644.973 396.789 645.706 395.123Q646.439 393.456 647.254 391.828Q648.068 390.2 648.962 388.613Q649.855 387.027 650.825 385.486Q651.795 383.945 652.84 382.454Q653.885 380.963 655.002 379.525Q656.118 378.087 657.305 376.706Q658.491 375.324 659.743 374.003C677.405 355.51 701.967 351.467 726.429 350.906C704.003 346.639 682.773 339.447 666.287 322.875C643.27 299.739 636.443 269.603 636.434 238.024Z"/>
		<path fill="#FFF05E" d="M284.066 238.182C318.201 237.481 352.459 238.051 386.608 238.096C387.839 261.282 384.035 284.232 371.412 304.077C353.5 332.238 328.816 343.61 297.3 350.731C319.776 351.898 342.013 354.699 359.691 370.067Q361.05 371.271 362.348 372.542Q363.646 373.812 364.88 375.145Q366.113 376.477 367.279 377.87Q368.445 379.262 369.541 380.71Q370.637 382.158 371.659 383.659Q372.682 385.16 373.629 386.709Q374.576 388.259 375.446 389.853Q376.315 391.447 377.105 393.083Q377.894 394.718 378.601 396.391Q379.309 398.064 379.933 399.769Q380.557 401.475 381.095 403.209Q381.634 404.943 382.086 406.702Q382.538 408.461 382.903 410.24Q383.268 412.019 383.544 413.814Q383.82 415.609 384.007 417.415Q384.194 419.222 384.291 421.035Q384.387 422.83 384.394 424.627Q384.402 426.424 384.321 428.22Q384.241 430.015 384.072 431.805Q383.904 433.594 383.647 435.373Q383.391 437.152 383.048 438.916Q382.705 440.68 382.276 442.426Q381.846 444.171 381.332 445.893Q380.817 447.615 380.219 449.31Q379.62 451.004 378.94 452.668Q378.259 454.331 377.497 455.959Q376.735 457.587 375.895 459.176Q375.054 460.764 374.137 462.31Q373.219 463.855 372.227 465.354Q371.235 466.852 370.17 468.3Q369.105 469.748 367.971 471.142Q366.836 472.536 365.635 473.873C348.545 493.002 325.347 497.853 300.793 499.262C308.457 500.545 315.918 502.06 323.372 504.311C336.591 509.313 348.284 516.154 358.545 525.954C383.383 549.677 386.189 575.464 386.898 607.933L284.084 607.721L284.066 238.182Z"/>
		<path fill="#FFF05E" d="M511.583 372.06C516.357 350.645 521.646 331.022 531.882 311.485C552.809 271.545 581.566 251.696 623.711 238.589C624.617 250.624 623.614 263.092 622.352 275.072C617.769 309.65 605.532 343.978 581.015 369.578C566.278 384.965 548.817 395.347 528.953 402.642C523.608 404.605 517.716 406.798 511.95 406.784C490.178 406.731 459.578 385.467 444.86 370.38C418.666 343.527 403.488 305.34 400.471 268.135C399.69 258.501 400.097 248.717 400.239 239.059C415.541 243.31 430.503 249.093 443.902 257.734C484.032 283.615 501.919 327.306 511.583 372.06Z"/>
		<path fill="#FFF05E" d="M508.314 438.64C509.356 438.469 510.402 438.332 511.46 438.329C516.619 438.314 522.083 440.15 526.891 441.849Q530.401 443.071 533.837 444.488Q537.273 445.906 540.624 447.513Q543.975 449.121 547.231 450.914Q550.487 452.707 553.636 454.68Q556.786 456.653 559.821 458.8Q562.855 460.946 565.764 463.259Q568.673 465.573 571.448 468.046Q574.223 470.518 576.855 473.143C601.05 497.41 617.17 531.547 621.237 565.554C622.902 579.479 622.514 593.508 622.457 607.502C613.575 605.314 604.928 601.715 596.81 597.538C548.702 572.784 528.052 530.185 512.473 481.102C512.286 480.49 512.076 480.169 511.721 479.647C509.383 483.209 506.05 497.537 504.043 503.123C499.593 515.51 494.045 528.045 487.393 539.425C467.472 573.501 438.514 597.286 400.092 607.495C400.176 596.076 400.018 584.603 401.07 573.222Q401.319 570.558 401.651 567.902Q401.983 565.247 402.399 562.604Q402.815 559.96 403.314 557.331Q403.812 554.702 404.394 552.09Q404.975 549.478 405.638 546.885Q406.302 544.293 407.046 541.723Q407.791 539.152 408.616 536.607Q409.441 534.061 410.346 531.543Q411.25 529.024 412.234 526.536Q413.218 524.047 414.279 521.591Q415.341 519.134 416.479 516.713Q417.618 514.291 418.832 511.906Q420.046 509.521 421.334 507.176Q422.623 504.831 423.984 502.527Q425.346 500.224 426.78 497.964Q428.213 495.704 429.717 493.491C447.645 467.453 476.779 444.52 508.314 438.64Z"/>
		<path fill="#FFF05E" d="M611.486 658.612C624.376 659.124 637.499 658.619 650.411 658.601L727.243 658.542C737.362 677.585 747.21 696.808 758.264 715.333C767.402 699.645 778.16 684.834 786.877 668.904C785.39 668.649 784.183 668.571 783.049 667.472C781.839 664.834 782.453 661.422 782.553 658.548L812.435 658.597L812.417 668.931L804.109 669.685C798.94 677.799 767.564 725.683 766.545 730.422C764.118 741.714 765.428 761.957 765.802 773.924C769.839 775.028 773.837 775.705 777.987 776.22L777.974 785.642C765.019 785.934 752.08 786.085 739.132 785.477L739.047 777.092L749.031 773.422Q748.914 760.216 749.097 747.011C749.124 741.972 749.502 736.554 748.586 731.576C748.274 729.881 747.548 728.367 746.784 726.837Q737.437 709.952 727.712 693.282C723.281 685.613 719.111 676.975 713.101 670.433C710.314 669.549 707.502 669.097 704.624 668.623C704.304 674.706 704.485 680.889 704.469 686.985L693.689 686.971C693.42 681.857 691.902 676.504 690.885 671.476L639.273 671.377L639.269 716.04Q666.58 715.956 693.89 716.239L693.69 730.816C675.701 731.04 657.494 731.364 639.517 730.738L639.665 773.793C643.088 774.75 646.42 775.353 649.948 775.743L649.932 785.472C637.408 785.269 624.865 785.367 612.339 785.324L612.137 777.18L621.573 773.85L621.466 671.056Q616.354 669.188 611.168 667.534L611.486 658.612Z"/>
		<path fill="#FFF05E" d="M211.724 658.887Q224.941 658.902 238.156 658.741C243.58 670.743 250.079 682.102 256.216 693.738Q270.021 720.483 284.282 746.987C300.907 718.11 315.401 688.033 331.628 658.936L358.303 658.985L358.383 667.767C355.236 668.237 352.1 669.076 348.998 669.788Q348.322 722.2 349.235 774.608C351.991 775.78 354.801 776.848 357.582 777.961L357.757 785.47L322.11 785.45L322.333 777.492C325.668 776.736 328.888 775.532 332.12 774.427Q332.668 746.027 332.265 717.625C332.254 707.504 332.08 697.352 332.426 687.237C316.212 715.004 302.181 744.118 286.999 772.461L280.104 772.55C276.045 763.359 270.665 754.384 265.979 745.478L234.656 686.113C235.01 695.985 234.763 705.97 234.796 715.854L234.951 775.283C237.99 775.653 241.032 776.308 244.046 776.857L244.063 785.474C232.896 785.346 221.711 785.474 210.541 785.48L210.546 777.257C213.666 776.244 216.75 775.097 219.841 773.996C218.719 762.648 219.62 750.382 219.634 738.967L219.681 669.375C217.016 668.626 214.367 667.624 211.738 666.746L211.724 658.887Z"/>
		<path fill="#FFF05E" d="M512.568 658.913Q529.306 658.783 546.044 658.839L546.084 667.836C543.055 668.872 540.009 669.795 536.934 670.683C536.856 708.759 536.474 746.955 537.294 785.018L528.437 785.01L521.963 785.206C514.349 772.468 504.723 760.396 496.115 748.297L449.958 683.35L450.204 775.295C453.082 775.54 455.959 775.88 458.832 776.177C458.709 779.257 458.792 782.377 458.776 785.462C447.349 785.348 435.913 785.458 424.485 785.481L424.511 776.455C427.936 776.013 431.406 775.755 434.844 775.414Q434.295 722.537 434.396 669.658Q429.746 668.85 425.06 668.291L425.053 658.962C434.767 659.259 444.586 659.017 454.297 658.754C462.236 671.714 471.732 683.778 480.614 696.107Q501.189 725.015 522.063 753.706C520.787 726.211 521.604 698.342 521.548 670.812Q517.045 669.293 512.578 667.674L512.568 658.913Z"/>
		<path fill="#FFF05E" d="M372.673 659.011L411.501 659.002C411.506 661.993 411.57 664.93 411.82 667.912C408.018 668.965 404.238 670.113 400.45 671.215L400.561 775.032C403.996 775.644 407.509 775.953 410.975 776.35L410.974 784.894C410.951 784.92 410.936 784.956 410.906 784.973C409.682 785.673 377.607 785.146 372.998 785.299L372.783 777.481C376.056 776.59 379.209 775.471 382.394 774.307C381.943 762.459 382.262 750.456 382.242 738.591L382.159 670.693C378.973 669.634 375.736 668.721 372.516 667.773C372.449 664.846 372.562 661.935 372.673 659.011Z"/>
		<path fill="#FFF05E" d="M558.796 658.748C571.621 659.26 584.646 658.793 597.492 658.789L597.523 667.668L587.238 670.859C588.109 681.969 587.407 693.667 587.419 704.864L587.464 774.229C590.992 775.114 594.493 776.164 597.998 777.14C598.05 779.505 598.624 783.342 597.001 785.069L558.084 785.32L558.067 776.808L569.577 773.423C568.799 739.221 569.522 704.838 569.509 670.616C565.907 669.521 562.197 668.731 558.536 667.859C558.513 664.817 558.414 661.773 558.796 658.748Z"/>
	</g>
	<g/>
</svg>
